<svg version="1.1" xmlns="http://www.w3.org/2000/svg" viewBox="0 0 1677 803" width="1677" height="803">
  <!-- svg-source:excalidraw -->
  
  <defs>
    <style>
      @font-face {
        font-family: "Virgil";
        src: url("https://excalidraw.com/Virgil.woff2");
      }
      @font-face {
        font-family: "Cascadia";
        src: url("https://excalidraw.com/Cascadia.woff2");
      }
    </style>
  </defs>
  <rect x="0" y="0" width="1677" height="803" fill="#ffffff"></rect><g stroke-linecap="round" transform="translate(215 25) rotate(0 721 372)"><path d="M0 0 C402.6660366578028 0, 805.3320733156056 0, 1442 0 M0 0 C512.4159942733124 0, 1024.8319885466249 0, 1442 0 M1442 0 C1442 246.76428399905564, 1442 493.52856799811127, 1442 744 M1442 0 C1442 205.4364787615836, 1442 410.8729575231672, 1442 744 M1442 744 C913.807206066139 744, 385.61441213227795 744, 0 744 M1442 744 C875.469013239257 744, 308.9380264785141 744, 0 744 M0 744 C0 585.6251527704298, 0 427.2503055408597, 0 0 M0 744 C0 470.14823836907743, 0 196.29647673815487, 0 0" stroke="#000000" stroke-width="2" fill="none"></path></g><g stroke-linecap="round" transform="translate(10 10) rotate(0 828.5 391.5)"><path d="M0 0 C660.4587890877389 0, 1320.9175781754777 0, 1657 0 M0 0 C454.1292319954373 0, 908.2584639908746 0, 1657 0 M1657 0 C1657 177.89568584645167, 1657 355.79137169290334, 1657 783 M1657 0 C1657 229.85660890107977, 1657 459.71321780215953, 1657 783 M1657 783 C1317.682906060014 783, 978.3658121200278 783, 0 783 M1657 783 C1265.8671571730636 783, 874.7343143461272 783, 0 783 M0 783 C0 537.651405750867, 0 292.3028115017339, 0 0 M0 783 C0 591.5019491636194, 0 400.00389832723886, 0 0" stroke="#000000" stroke-width="2" fill="none"></path></g><g stroke-linecap="round" transform="translate(19 23) rotate(0 91 152.5)"><path d="M0 0 C63.202333596907565 0, 126.40466719381513 0, 182 0 M0 0 C67.52856604997069 0, 135.05713209994138 0, 182 0 M182 0 C182 96.4089172356762, 182 192.8178344713524, 182 305 M182 0 C182 120.83023018157111, 182 241.66046036314222, 182 305 M182 305 C132.33826928976924 305, 82.67653857953846 305, 0 305 M182 305 C130.6737240916118 305, 79.3474481832236 305, 0 305 M0 305 C0 235.3716377443634, 0 165.7432754887268, 0 0 M0 305 C0 196.3884848007001, 0 87.7769696014002, 0 0" stroke="#000000" stroke-width="2" fill="none"></path></g><g stroke-linecap="round" transform="translate(20 348) rotate(0 91.5 211.5)"><path d="M0 0 C43.81708382377401 0, 87.63416764754803 0, 183 0 M0 0 C45.61949557503686 0, 91.23899115007372 0, 183 0 M183 0 C183 121.29453579643742, 183 242.58907159287483, 183 423 M183 0 C183 99.17507985820994, 183 198.35015971641988, 183 423 M183 423 C115.8823574840091 423, 48.76471496801821 423, 0 423 M183 423 C112.37282651821151 423, 41.74565303642302 423, 0 423 M0 423 C0 304.2072890295647, 0 185.4145780591294, 0 0 M0 423 C0 336.04730958351865, 0 249.0946191670373, 0 0" stroke="#000000" stroke-width="2" fill="none"></path></g><g transform="translate(24 25) rotate(0 85 100)"><text x="0" y="18" font-family="Virgil, Segoe UI Emoji" font-size="20px" fill="#000000" text-anchor="start" style="white-space: pre;" direction="ltr">-- Participants --</text><text x="0" y="43" font-family="Virgil, Segoe UI Emoji" font-size="20px" fill="#000000" text-anchor="start" style="white-space: pre;" direction="ltr">Grace</text><text x="0" y="68" font-family="Virgil, Segoe UI Emoji" font-size="20px" fill="#000000" text-anchor="start" style="white-space: pre;" direction="ltr">Karen</text><text x="0" y="93" font-family="Virgil, Segoe UI Emoji" font-size="20px" fill="#000000" text-anchor="start" style="white-space: pre;" direction="ltr">Robert</text><text x="0" y="118" font-family="Virgil, Segoe UI Emoji" font-size="20px" fill="#000000" text-anchor="start" style="white-space: pre;" direction="ltr">Sam</text><text x="0" y="143" font-family="Virgil, Segoe UI Emoji" font-size="20px" fill="#000000" text-anchor="start" style="white-space: pre;" direction="ltr">Tom</text><text x="0" y="168" font-family="Virgil, Segoe UI Emoji" font-size="20px" fill="#000000" text-anchor="start" style="white-space: pre;" direction="ltr">Ben</text><text x="0" y="193" font-family="Virgil, Segoe UI Emoji" font-size="20px" fill="#000000" text-anchor="start" style="white-space: pre;" direction="ltr">Toni</text></g><g stroke-linecap="round" transform="translate(97.5 55) rotate(0 9.343999999999767 9.343999999999767)"><path d="M0.35763789899647236 -0.460977541282773 L18.841104739263198 -1.4811310041695833 L19.013297730043075 17.13472693125858 L1.9556988049298525 18.22501276890888" stroke="none" stroke-width="0" fill="#fff"></path><path d="M-1.3907276817559857 -0.7823260448217202 C7.350082042312444 1.003216855452036, 14.02278002321686 0.6635613981461362, 17.715417144751118 0.4465943020105252 M0.9065087469219941 0.13172267264127413 C5.410683417689669 0.24224203261374844, 10.10492274910187 0.9450931804561384, 18.690375548755668 0.6733140067934826 M18.244129357885868 1.5810345302819822 C18.887998097583786 4.17777473759641, 18.746276833698293 7.306689578699887, 18.54491634747937 18.981809198402896 M19.199402401172648 0.9261070274233592 C19.068594714598188 4.682935509836559, 18.253529681257756 8.40332726129273, 19.177550660526286 18.811934286868112 M19.50428578717661 19.84003282511186 C14.038978132199897 19.13228095678998, 7.5607509215591495 19.181646349093448, 0.026248533606528568 18.684565720772287 M18.577797337162043 19.568862170779227 C13.6947382860538 18.824449378189584, 11.037360301840035 18.50449674185231, 0.24826650716065757 18.146167152392422 M0.8035314498662753 17.14181649591881 C0.40350435308217025 10.398185507964834, -1.6726135416626522 2.9508619662999385, -0.7386214531183064 -1.0297634746312845 M-0.7341451169848263 18.823458024584788 C-0.1700666799831349 14.468686459743623, 0.08264121148109232 11.037599257695407, -0.26280308321713763 -0.3532299747586164" stroke="#000000" stroke-width="1" fill="none"></path></g><g transform="translate(121.725185185187 55.69214814814819) rotate(0 36 10)"><text x="0" y="14" font-family="Virgil, Segoe UI Emoji" font-size="16px" fill="#000000" text-anchor="start" style="white-space: pre;" direction="ltr">Checkbox</text></g><g stroke-linecap="round" transform="translate(97.5 82) rotate(0 9.343999999999767 9.343999999999767)"><path d="M1.7854046989232302 -0.7297782767564058 L19.560802691533706 -0.9412769544869661 L18.308129959657332 17.981282641097447 L-1.9536315631121397 18.938817013903996" stroke="none" stroke-width="0" fill="#fff"></path><path d="M-0.2354474327325764 0.7585745655298046 C4.040358995437524 0.9499484203934438, 7.005428680443593 0.48704843183754704, 19.8490684875245 0.6249613186120833 M-0.0719897760272008 -0.9192786090969816 C7.102871003138846 -0.15121727402686702, 14.746108942949414 0.7870873894405173, 18.343697728931456 -0.5765267280697682 M17.144336950659333 -1.3654547031163837 C19.57281027775955 6.133265802049488, 18.84167104512407 14.370385941004404, 19.47287003400278 17.098211371254504 M18.728396456348438 0.8189444175600806 C19.244862268309124 5.925387133371686, 19.317174969343668 10.936080618226264, 19.00347791882707 18.271419723879845 M19.607795723700043 19.19697874796344 C15.666960114621734 17.128116393801747, 10.88657994987938 20.014387254855144, -1.7571204361199906 18.084228049873865 M18.826896470462817 18.10512573279098 C12.681652092206168 19.10961596510364, 4.660401280844097 18.041441844391382, -0.32898865641354713 19.138966261279116 M1.0719187301397062 17.94262257502035 C1.683358139703233 11.336976914214812, 1.6056722762083615 2.9490636996983763, 1.8458619209050684 0.9543840107202297 M-0.574328405559049 18.929535258471503 C-0.17218752959250982 13.530551803981927, -0.355226903753272 8.703940212285307, -0.03782816866636185 -0.18592969399690173" stroke="#000000" stroke-width="1" fill="none"></path></g><g transform="translate(121.725185185187 82.69214814814819) rotate(0 36 10)"><text x="0" y="14" font-family="Virgil, Segoe UI Emoji" font-size="16px" fill="#000000" text-anchor="start" style="white-space: pre;" direction="ltr">Checkbox</text></g><g stroke-linecap="round" transform="translate(96.5 108) rotate(0 9.343999999999767 9.343999999999767)"><path d="M0.06839348189532757 1.4217645693570375 L20.685527433558843 -1.353254659101367 L19.732350517913243 18.531850212171218 L-1.5064082611352205 18.854826741769454" stroke="none" stroke-width="0" fill="#fff"></path><path d="M1.4580951496362333 0.965368092322326 C3.8821036815642374 -1.0544052956604701, 9.33346106603123 1.0185073760008563, 20.3079964534993 0.7816068885564613 M0.8807594142794395 -0.06231331614255753 C8.060033992397589 -0.568533954153047, 15.359165980183706 0.5517297478580341, 18.39449073866561 -0.612753850734219 M18.098523400520836 -0.2761334373712472 C17.617578971087504 4.22874874949445, 18.49747798155501 7.866825443196106, 20.35628215067337 18.006095178198375 M18.357821649920492 -0.9127366662859695 C18.717228790268443 6.042616961514802, 18.470125555786638 13.094732124960101, 18.955862337100044 18.443674178516414 M20.328867496132354 17.783705828833146 C13.037921250581423 18.82580422734453, 6.498206670069536 16.765879643146583, 0.09408759882449869 19.206482857489117 M19.49359061163616 19.362014312183383 C11.90204954715938 18.932588460936085, 5.706211986100533 18.54247040025189, 0.17253245848416854 17.76070348950581 M0.06557509272098372 18.316100734686405 C-0.17310692788838922 11.479491213226039, -1.4634073803114536 8.948468386101503, -0.8475145457982811 1.3949597701787608 M-0.671513778698428 18.382388447391538 C-0.03667560013770976 13.78138623942103, 0.4703400374507789 9.020561973345057, 0.7818085246920394 0.1320954103589025" stroke="#000000" stroke-width="1" fill="none"></path></g><g transform="translate(120.725185185187 108.69214814814819) rotate(0 36 10)"><text x="0" y="14" font-family="Virgil, Segoe UI Emoji" font-size="16px" fill="#000000" text-anchor="start" style="white-space: pre;" direction="ltr">Checkbox</text></g><g stroke-linecap="round" transform="translate(97.5 131) rotate(0 9.343999999999767 9.343999999999767)"><path d="M-0.7064841222018003 1.3049371968954802 L17.31143134172215 -0.3457037080079317 L19.224310749128005 18.94417117993488 L1.6390266586095095 20.143837739631078" stroke="none" stroke-width="0" fill="#fff"></path><path d="M1.2779193923711465 1.096589149117443 C6.558793944167931 0.2239403127121869, 10.054260659050698 1.2882463056015656, 20.554489633917306 -1.2644811534642866 M0.07794145375489991 0.41751420286892826 C7.271127810466113 -0.03719583207130339, 13.990620624696868 0.34314627036093837, 18.047764884006536 -0.4436840992092978 M20.25994149548958 -1.5672711986302947 C17.579969620334673 5.457741673326359, 20.0883247968788 7.332962772822201, 17.42043280637222 20.20159641382645 M18.527798474704767 0.00657249563932405 C18.377899504789855 6.462699675714812, 17.88658394654707 11.055479577958314, 18.846657659351365 18.909474571978585 M17.840785644506973 19.62304601709795 C14.641763357114435 19.959844054400435, 9.723375420307876 18.201284959399256, 0.7903566184758946 20.30913045084427 M18.181639199268375 18.180987905108484 C13.448774785458712 18.815788726181523, 8.991208235418576 19.358607513184072, 0.390461091434946 17.918544656741183 M1.7070666831731383 17.636663452553318 C0.18875499128102807 14.900644077300662, -1.4620755255341176 7.644115742087177, -0.4225490860223666 -0.7837313861608315 M-0.7737875444292834 18.89504285315229 C-0.30562632994651046 13.245882185375367, 0.03728806786537081 6.140520333516447, -0.6039634916186185 -0.6417039230465733" stroke="#000000" stroke-width="1" fill="none"></path></g><g transform="translate(121.725185185187 131.6921481481482) rotate(0 36 10)"><text x="0" y="14" font-family="Virgil, Segoe UI Emoji" font-size="16px" fill="#000000" text-anchor="start" style="white-space: pre;" direction="ltr">Checkbox</text></g><g stroke-linecap="round" transform="translate(95.5 161) rotate(0 9.343999999999767 9.343999999999767)"><path d="M-1.9209398496896029 -1.6874843668192625 L18.130129267379186 -0.9781343173235655 L19.16636847417011 18.01261668737187 L-1.4278838504105806 17.30665683086171" stroke="none" stroke-width="0" fill="#fff"></path><path d="M1.1056475383996696 1.5219260917424786 C5.8071159984587215 -1.1689242851471617, 15.870279404806706 0.3063347488188668, 19.937624989723673 -0.4785210251092795 M0.6486078353762468 -0.9263785524248851 C4.713292846691493 0.2456702581882417, 10.79346847079966 -0.5187234006404751, 18.45036925009444 0.020471330463885717 M19.955749788307656 -0.17476857759952114 C18.290695295016317 5.549542262983187, 20.402635052554107 8.975164016651888, 20.531355779671166 18.27164053113416 M18.857424673068063 0.42959369069336795 C19.298841041092402 4.98413948997247, 17.817142237762972 9.20848237177111, 18.07581615370468 19.29595549985123 M20.549295226692653 17.103487705206454 C11.627951357698157 18.27208273617938, 3.277335247492709 19.18409045178605, 1.2879086643457098 19.826336633276455 M19.341740814959532 18.854078934299487 C14.273412681543478 18.04866941567854, 9.928646254670376 18.322563525404483, 0.6096666583895536 18.044867122852363 M1.5315065098046885 20.048334783911216 C-1.2241586744856536 14.26870608139003, -1.6345293173384268 9.264030479454767, -0.13446870000362066 1.27258212506768 M-0.5430113170742856 18.777513506519337 C0.39351176466940874 11.243298594844067, 0.07832480216026114 5.660872171938279, 0.7094406860232181 -0.34864497240780934" stroke="#000000" stroke-width="1" fill="none"></path></g><g transform="translate(119.725185185187 161.6921481481482) rotate(0 36 10)"><text x="0" y="14" font-family="Virgil, Segoe UI Emoji" font-size="16px" fill="#000000" text-anchor="start" style="white-space: pre;" direction="ltr">Checkbox</text></g><g stroke-linecap="round" transform="translate(96.5 185) rotate(0 9.343999999999767 9.343999999999767)"><path d="M1.283171547576785 -0.026226921007037163 L16.68829606930866 0.2915616203099489 L20.65897398154392 19.573063128545424 L-1.1177219618111849 17.13118141229405" stroke="none" stroke-width="0" fill="#fff"></path><path d="M-0.6310781673192825 -1.3342146698236141 C3.7943985301970513 1.0615211021971442, 9.417547517752418 -0.5933318999695634, 20.25082875177811 -0.4117228950738807 M-0.846867245113829 0.8712111093640116 C4.774791999447229 0.3984796780490779, 8.705509434926299 0.1534312950992548, 17.99875228728012 -0.42994068011044406 M18.567668589424635 -0.2871198616266182 C18.318893644701987 2.68048063731187, 20.244435672747596 8.204177205586234, 17.921606392311613 18.86696329495861 M19.391386128222468 0.7933954496502682 C19.25065942594958 5.992793314206455, 18.78308585455372 13.865339433157107, 18.931990804659858 19.190531758319864 M19.133167128395566 19.88805480496835 C10.49167888913129 17.41491868214803, 6.5168457524059615 17.599312799121904, -0.2871102786779334 18.60853793714001 M17.907390758883516 18.51372208729937 C14.785712342416879 18.080212341856516, 8.90198821061828 18.64036500871136, 0.8864973762392783 19.020448447238934 M-1.6051848941564169 18.99357417371227 C1.9420254657577996 13.537139504241614, -0.21956634408711856 7.844893091606902, -0.6608986049413521 -1.8205591247796569 M-0.32130843125580955 17.979914850437204 C0.20692380476951105 14.512554099070671, 0.5011112929439423 10.377508008348688, 0.4479044238924872 0.6472457147717319" stroke="#000000" stroke-width="1" fill="none"></path></g><g transform="translate(120.725185185187 185.6921481481482) rotate(0 36 10)"><text x="0" y="14" font-family="Virgil, Segoe UI Emoji" font-size="16px" fill="#000000" text-anchor="start" style="white-space: pre;" direction="ltr">Checkbox</text></g><g stroke-linecap="round" transform="translate(94.5 211) rotate(0 9.343999999999767 9.343999999999767)"><path d="M0.8750702310353518 0.5151223074644804 L20.156903617932937 1.4465412627905607 L20.681296163156173 17.087091733619115 L-1.44292644970119 19.185346473857305" stroke="none" stroke-width="0" fill="#fff"></path><path d="M0.4667933860540274 -1.406861785483326 C7.148257359695261 -1.671674583604295, 11.468583027672489 1.7348495977615888, 19.610332890295503 -0.36025252263545116 M-0.8791561204790855 0.8341083530306612 C6.8579890077470065 -0.13925251877784386, 13.111274577867666 0.555801387853609, 18.360641858112363 0.6679329635500746 M19.886995494055263 -0.02450643498897498 C16.909057531940526 4.650202230882531, 20.619258973133064 9.582537093043094, 17.643600598883197 17.233308711647567 M18.943452890216843 0.6240636794924583 C17.73838168817 4.537040939676651, 18.425018974165468 8.663093187653807, 18.6506831075783 18.88748593405439 M19.267982929205424 20.419975697731473 C15.725459696530912 17.01650947897631, 11.24929034569236 17.272238884951644, 0.6319372283696976 20.3763506344075 M18.067682713901554 19.13468276327802 C12.685392707287956 19.406465514969355, 8.194309548818865 19.317448449921137, 0.15850962315797412 19.23881945875836 M-1.1843044647454928 17.71918226892905 C-0.8475939319824966 15.485219736480335, 1.6319765033506948 9.681516212820771, -0.1225423774957628 1.377695901894536 M0.055619678699968866 18.039910526263274 C-0.39353752898215294 13.261752439510499, 0.3501648693179999 7.623740434300713, -0.5568797670245035 -0.3240340404629628" stroke="#000000" stroke-width="1" fill="none"></path></g><g transform="translate(118.725185185187 211.6921481481482) rotate(0 36 10)"><text x="0" y="14" font-family="Virgil, Segoe UI Emoji" font-size="16px" fill="#000000" text-anchor="start" style="white-space: pre;" direction="ltr">Checkbox</text></g><g transform="translate(25 358) rotate(0 86.5 50)"><text x="0" y="18" font-family="Virgil, Segoe UI Emoji" font-size="20px" fill="#000000" text-anchor="start" style="white-space: pre;" direction="ltr">-- Chat Area --</text><text x="0" y="43" font-family="Virgil, Segoe UI Emoji" font-size="20px" fill="#000000" text-anchor="start" style="white-space: pre;" direction="ltr">Toni: Looks Good!</text><text x="0" y="68" font-family="Virgil, Segoe UI Emoji" font-size="20px" fill="#000000" text-anchor="start" style="white-space: pre;" direction="ltr">Ben: I like it!</text><text x="0" y="93" font-family="Virgil, Segoe UI Emoji" font-size="20px" fill="#000000" text-anchor="start" style="white-space: pre;" direction="ltr">Sam: SHIP IT!</text></g><g stroke-linecap="round" transform="translate(174 741) rotate(0 10.5 10.5)"><path d="M6.8386470227978915 0.33521437000418786 C8.860015091557422 -0.925673515615886, 11.203630391196226 -1.2374606438421565, 13.418436122597063 -0.5211128723830942 C15.6332418539979 0.19523489907596814, 18.859716261181703 2.4382935038484455, 20.12748141120291 4.633300998758562 C21.39524656122412 6.828308493668679, 21.35120176448845 10.367848113124323, 21.025027022724323 12.648932097077607 C20.698852280960196 14.93001608103089, 19.72549478088691 16.81176076256387, 18.17043296061815 18.319804902478264 C16.615371140349392 19.827849042392657, 14.089034104463224 21.705239708702877, 11.694656101111782 21.697196936563962 C9.30027809776034 21.689154164425048, 5.577979716423639 19.65988247417483, 3.804164940509498 18.27154826964479 C2.030350164595357 16.88321406511475, 1.427153123545593 15.335308175534317, 1.051767445626938 13.367191709383716 C0.6763817677082828 11.399075243233115, 0.37486373960715436 8.52712921409197, 1.5518508729975675 6.462849472741187 C2.7288380063879805 4.398569731390404, 6.497047632344795 1.9530678964252717, 8.113690245969417 0.9815132612790247 C9.73033285959404 0.00995862613277776, 11.09477995775914 0.63041937757328, 11.251706554745299 0.6335216618637052 M14.05477615739964 0.8675283173820212 C15.751091165988768 1.2065642142868584, 16.960049684640023 2.393428883982952, 18.229921048053683 4.2131323287920495 C19.499792411467343 6.032835773601147, 21.932464681843594 9.56775751751453, 21.67400433788161 11.785748986236609 C21.415543993919623 14.003740454958688, 18.567903331166193 16.09143986953435, 16.679158984281763 17.521081141124522 C14.790414637397335 18.950722412714693, 12.454368753493414 20.07762065230636, 10.34153825657504 20.36359661577763 C8.228707759656666 20.6495725792489, 5.64844418688318 20.677751982309044, 4.002176002771517 19.236936921952136 C2.355907818659854 17.79612186159523, 1.0200782294724489 14.068119900509538, 0.463929151905063 11.718706253636192 C-0.09221992566232284 9.369292606762846, -0.17605913631676273 6.8708084562889855, 0.6652815373672016 5.140455040712056 C1.506622211051166 3.410101625135127, 3.246250878288906 2.0826386942994874, 5.511973194008849 1.3365857601746178 C7.777695509728792 0.5905328260497483, 12.91126901272953 0.74852394153938, 14.25961543168686 0.6641374359628394 C15.607961850644191 0.5797509303862988, 13.709365374504099 0.7810683851032509, 13.602051707752832 0.830266726715374" stroke="none" stroke-width="0" fill="#fff"></path><path d="M13.158152914487655 -0.20029638177598663 C15.286573754734123 0.07936245300236006, 17.46487987826104 1.902614300103963, 18.7637361225987 3.867209583940589 C20.06259236693636 5.831804867777215, 21.175666355936137 9.176413230309974, 20.95129038051362 11.58727532124377 C20.7269144050911 13.998137412177565, 18.8935488644887 16.76351678982028, 17.417480270063603 18.33238212954336 C15.941411675638506 19.901247469266444, 14.297366051671103 20.852582642048958, 12.09487881396303 21.00046735958226 C9.892391576254957 21.14835207711556, 6.295374346113032 20.58798932578435, 4.202556843815166 19.21969043474316 C2.1097393415172987 17.851391543701972, 0.12543106712854712 15.151133222304374, -0.46202619982417303 12.790674013335122 C-1.049483466776893 10.430214804365871, -0.5321931455364244 7.122758623386572, 0.6778132420988445 5.056935180927653 C1.8878196297341134 2.991111738468733, 4.2403086855908345 0.9942585740436639, 6.79801212598744 0.3957333585816034 C9.355715566384045 -0.2027918568804571, 14.252535420003502 1.132321147168836, 16.024033884478477 1.4657838881552898 C17.79553234895345 1.7992466291417437, 17.699220898855344 2.2696819856412325, 17.427002912837292 2.396509804500327 M13.799063005371984 -0.26038463765507025 C15.425701741425536 0.30434062840568876, 16.88093906746754 2.407620309059271, 18.20724461863817 4.420068556490941 C19.5335501698088 6.432516803922611, 22.137398771639575 9.39557895420559, 21.75689631239576 11.814304846934949 C21.376393853151946 14.233030739664308, 17.856484448788827 17.285873935338838, 15.924229863175288 18.93242391286709 C13.991975277561751 20.578973890395343, 12.435082690214761 21.704471674226365, 10.163368798714536 21.693604712104456 C7.891654907214312 21.682737749982547, 3.871828618475236 20.20099613330488, 2.2939465141739426 18.867222140135638 C0.7160644098726492 17.533448146966396, 1.0777751416548325 16.183287971471334, 0.6960761729067766 13.69096075308901 C0.3143772041587208 11.198633534706687, -1.0449814079492157 6.276629982433377, 0.0037527016856078177 3.913258829841702 C1.0524868113204313 1.5498876772500272, 4.488779832429591 0.2100643533128782, 6.988480830715718 -0.48926616246103727 C9.488181829001844 -1.1885966782349526, 13.788240951169975 -0.4773201944887969, 15.001958691402368 -0.28272426480179114 C16.215676431634762 -0.08812833511478532, 14.701370197017154 0.5661656562117162, 14.270787272110073 0.6783094156609977" stroke="#000000" stroke-width="1" fill="none"></path></g><g transform="translate(179.52631578947398 741.8289473684214) rotate(0 4.973684210526329 9.67105263157896)"><text x="4.973684210526316" y="13.342105263157904" font-family="Virgil, Segoe UI Emoji" font-size="15.473684210526322px" fill="#000000" text-anchor="middle" style="white-space: pre;" direction="ltr">+</text></g><g stroke-linecap="round" transform="translate(25 741) rotate(0 71 11.5)"><path d="M0 0 C46.934147903509434 0, 93.86829580701887 0, 142 0 M0 0 C45.98266538362951 0, 91.96533076725902 0, 142 0 M142 0 C142 7.864277714584023, 142 15.728555429168045, 142 23 M142 0 C142 7.9161103351973, 142 15.8322206703946, 142 23 M142 23 C85.23163019698113 23, 28.46326039396226 23, 0 23 M142 23 C94.6967990161851 23, 47.39359803237019 23, 0 23 M0 23 C0 15.130567264463753, 0 7.261134528927505, 0 0 M0 23 C0 15.680203838739544, 0 8.360407677479088, 0 0" stroke="#000000" stroke-width="1" fill="none"></path></g><g transform="translate(219 30) rotate(0 487.5 275.5)"><text x="0" y="15" font-family="Cascadia, Segoe UI Emoji" font-size="16px" fill="#000000" text-anchor="start" style="white-space: pre;" direction="ltr">function createAccount(pin, amount = 0) {</text><text x="0" y="34" font-family="Cascadia, Segoe UI Emoji" font-size="16px" fill="#000000" text-anchor="start" style="white-space: pre;" direction="ltr">    return {</text><text x="0" y="53" font-family="Cascadia, Segoe UI Emoji" font-size="16px" fill="#000000" text-anchor="start" style="white-space: pre;" direction="ltr">        checkBalance(newPin) {</text><text x="0" y="72" font-family="Cascadia, Segoe UI Emoji" font-size="16px" fill="#000000" text-anchor="start" style="white-space: pre;" direction="ltr">            if (newPin != pin) return "Invalid PIN.";</text><text x="0" y="91" font-family="Cascadia, Segoe UI Emoji" font-size="16px" fill="#000000" text-anchor="start" style="white-space: pre;" direction="ltr">            return `$${amount}`;</text><text x="0" y="110" font-family="Cascadia, Segoe UI Emoji" font-size="16px" fill="#000000" text-anchor="start" style="white-space: pre;" direction="ltr">        },</text><text x="0" y="129" font-family="Cascadia, Segoe UI Emoji" font-size="16px" fill="#000000" text-anchor="start" style="white-space: pre;" direction="ltr">        deposit(newPin, amt) {</text><text x="0" y="148" font-family="Cascadia, Segoe UI Emoji" font-size="16px" fill="#000000" text-anchor="start" style="white-space: pre;" direction="ltr">            if (newPin != pin) return "Invalid PIN.";</text><text x="0" y="167" font-family="Cascadia, Segoe UI Emoji" font-size="16px" fill="#000000" text-anchor="start" style="white-space: pre;" direction="ltr"></text><text x="0" y="186" font-family="Cascadia, Segoe UI Emoji" font-size="16px" fill="#000000" text-anchor="start" style="white-space: pre;" direction="ltr">            amount += amt;</text><text x="0" y="205" font-family="Cascadia, Segoe UI Emoji" font-size="16px" fill="#000000" text-anchor="start" style="white-space: pre;" direction="ltr">            return `Succesfully deposited $${amt}. Current balance: $${amount}.`;</text><text x="0" y="224" font-family="Cascadia, Segoe UI Emoji" font-size="16px" fill="#000000" text-anchor="start" style="white-space: pre;" direction="ltr">        },</text><text x="0" y="243" font-family="Cascadia, Segoe UI Emoji" font-size="16px" fill="#000000" text-anchor="start" style="white-space: pre;" direction="ltr">        withdraw(newPin, amt) {</text><text x="0" y="262" font-family="Cascadia, Segoe UI Emoji" font-size="16px" fill="#000000" text-anchor="start" style="white-space: pre;" direction="ltr">            if (newPin != pin) return "Invalid PIN.";</text><text x="0" y="281" font-family="Cascadia, Segoe UI Emoji" font-size="16px" fill="#000000" text-anchor="start" style="white-space: pre;" direction="ltr">            if (amt &gt; amount) return "Withdrawal amount exceeds account balance. Transaction cancelled."</text><text x="0" y="300" font-family="Cascadia, Segoe UI Emoji" font-size="16px" fill="#000000" text-anchor="start" style="white-space: pre;" direction="ltr"></text><text x="0" y="319" font-family="Cascadia, Segoe UI Emoji" font-size="16px" fill="#000000" text-anchor="start" style="white-space: pre;" direction="ltr">            amount -= amt;</text><text x="0" y="338" font-family="Cascadia, Segoe UI Emoji" font-size="16px" fill="#000000" text-anchor="start" style="white-space: pre;" direction="ltr">            return `Succesfully withdrew $${amt}. Current balance: $${amount}.`;</text><text x="0" y="357" font-family="Cascadia, Segoe UI Emoji" font-size="16px" fill="#000000" text-anchor="start" style="white-space: pre;" direction="ltr">        },</text><text x="0" y="376" font-family="Cascadia, Segoe UI Emoji" font-size="16px" fill="#000000" text-anchor="start" style="white-space: pre;" direction="ltr">        changePin(oldPin, newPin) {</text><text x="0" y="395" font-family="Cascadia, Segoe UI Emoji" font-size="16px" fill="#000000" text-anchor="start" style="white-space: pre;" direction="ltr">            if (oldPin != pin) return "Invalid PIN";</text><text x="0" y="414" font-family="Cascadia, Segoe UI Emoji" font-size="16px" fill="#000000" text-anchor="start" style="white-space: pre;" direction="ltr"></text><text x="0" y="433" font-family="Cascadia, Segoe UI Emoji" font-size="16px" fill="#000000" text-anchor="start" style="white-space: pre;" direction="ltr">            pin = newPin;</text><text x="0" y="452" font-family="Cascadia, Segoe UI Emoji" font-size="16px" fill="#000000" text-anchor="start" style="white-space: pre;" direction="ltr">            return "PIN successfully changed!";</text><text x="0" y="471" font-family="Cascadia, Segoe UI Emoji" font-size="16px" fill="#000000" text-anchor="start" style="white-space: pre;" direction="ltr">        }</text><text x="0" y="490" font-family="Cascadia, Segoe UI Emoji" font-size="16px" fill="#000000" text-anchor="start" style="white-space: pre;" direction="ltr">    }</text><text x="0" y="509" font-family="Cascadia, Segoe UI Emoji" font-size="16px" fill="#000000" text-anchor="start" style="white-space: pre;" direction="ltr">}</text><text x="0" y="528" font-family="Cascadia, Segoe UI Emoji" font-size="16px" fill="#000000" text-anchor="start" style="white-space: pre;" direction="ltr"></text><text x="0" y="547" font-family="Cascadia, Segoe UI Emoji" font-size="16px" fill="#000000" text-anchor="start" style="white-space: pre;" direction="ltr">module.exports = { createAccount };</text></g></svg>